# xmcd
# 
# Track frame offsets:
#     150
#     17555
#     34866
#     52181
#     69504
# 
# Disc length: 1154
# 
# Revision: 2
# Processed by: cddbd v1.5.2PL0 Copyright (c) Steve Scherf et al.
# Submitted via: fre:ac v1.0.17
# 
DISCID=3e048005
DTITLE=GALAY - 道産子シーサー
DYEAR=2002
DGENRE=Rock
TTITLE0=道産子シーサー
TTITLE1=道産子シーサー (Remix)
TTITLE2=道産子シーサー (テルオ Only version)
TTITLE3=道産子シーサー (Instrumental)
TTITLE4=道産子シーサー (Chorus)
EXTD=YEAR: 2002
EXTT0=
EXTT1=
EXTT2=
EXTT3=
EXTT4=
PLAYORDER=
